<svg version="1.2" xmlns="http://www.w3.org/2000/svg" viewBox="0 0 1040 500" width="1040" height="500">
	<title>9298676-ai</title>
	<defs>
		<clipPath clipPathUnits="userSpaceOnUse" id="cp1">
			<path d="m508.72 348.02h-140.04c-4.75 0-8.59-3.84-8.59-8.59v-88.12c0-4.75 3.84-8.59 8.59-8.59h140.04c4.75 0 8.6 3.84 8.6 8.59v88.12c0 4.75-3.85 8.59-8.6 8.59z"/>
		</clipPath>
	</defs>
	<style>
		tspan { white-space:pre } 
		.s0 { fill: #7678ed } 
		.s1 { fill: #474dbf } 
		.s2 { fill: #232322 } 
		.s3 { fill: #ffffff } 
		.s4 { fill: #b3f4b9 } 
		.s5 { fill: #f2a17a } 
		.s6 { fill: #e0845d } 
		.s7 { fill: #fecc39 } 
		.t8 { font-size: 15px;line-height: 79px;fill: #232322;font-weight: 400;font-family: "HeptaSlab-Regular", "Hepta Slab" } 
	</style>
	<g id="BACKGROUND">
		<path id="&lt;Path&gt;" class="s0" d="m1040 500h-1040v-500h1040z"/>
	</g>
	<g id="OBJECT">
		<g id="&lt;Group&gt;">
			<g id="&lt;Group&gt;">
				<path id="&lt;Compound Path&gt;" fill-rule="evenodd" class="s1" d="m137.9 425.1q-1.1 3.3-2.8 6.4l8.1 8-14.5 14.5-8.4-8.3q-2.9 1.5-6.1 2.4v11.9h-20.6v-12.4q-2.9-1-5.6-2.4l-8.8 8.7-14.5-14.5 9-9q-1.3-2.7-2.2-5.6h-11.3v-20.5h11.4q0.9-2.8 2.2-5.3l-9-9 14.5-14.6 8.8 8.8q2.7-1.4 5.7-2.4v-12.3h20.5v11.9q3.2 0.9 6.2 2.4l8.2-8.3 14.6 14.6-8.1 8q1.7 3.1 2.7 6.4h11.3v20.6zm-11.9-10.4c0-11.7-9.5-21.2-21.2-21.2-11.8 0-21.3 9.5-21.3 21.2 0 11.8 9.5 21.3 21.3 21.3 11.7 0 21.2-9.5 21.2-21.3z"/>
				<g id="&lt;Group&gt;">
					<g id="&lt;Group&gt;">
						<path id="&lt;Path&gt;" class="s2" d="m150.9 425.1q0-10.3 0-20.6c0-0.9-0.8-1.7-1.7-1.7q-5.6 0-11.3 0 0.8 0.6 1.6 1.3-1.1-3.6-2.8-6.8-0.2 1-0.3 2 4-4 8.1-8c0.6-0.7 0.6-1.8 0-2.5q-7.3-7.2-14.5-14.5c-0.7-0.6-1.8-0.6-2.5 0q-4.1 4.2-8.3 8.3 1.1-0.1 2.1-0.3-3.1-1.6-6.5-2.6 0.6 0.9 1.2 1.7 0-6 0-11.9c0-0.9-0.8-1.7-1.7-1.7q-10.3 0-20.5 0c-1 0-1.8 0.8-1.8 1.7q0 6.1 0 12.3 0.7-0.8 1.3-1.7-3.1 1.1-6.1 2.7 1.1 0.1 2.1 0.2-4.4-4.4-8.8-8.8c-0.6-0.6-1.8-0.6-2.4 0q-7.3 7.3-14.5 14.6c-0.7 0.6-0.7 1.7 0 2.4q4.5 4.5 9 9-0.2-1-0.3-2.1-1.4 2.8-2.4 5.7 0.9-0.6 1.7-1.2-5.7 0-11.4 0c-0.9 0-1.7 0.7-1.7 1.7q0 10.3 0 20.5c0 1 0.8 1.7 1.7 1.7q5.6 0 11.3 0-0.8-0.6-1.7-1.2 1 3.1 2.4 6 0.2-1.1 0.3-2.1-4.5 4.5-9 9c-0.7 0.7-0.7 1.8 0 2.4q7.2 7.3 14.5 14.6c0.6 0.6 1.8 0.6 2.4 0q4.4-4.4 8.8-8.8-1 0.1-2.1 0.2 2.9 1.6 6.1 2.7-0.6-0.8-1.3-1.7 0 6.2 0 12.4c0 0.9 0.8 1.7 1.7 1.7q10.3 0 20.6 0c0.9 0 1.7-0.8 1.7-1.7q0-5.9 0-11.9-0.6 0.9-1.3 1.7 3.4-1 6.6-2.6-1-0.1-2.1-0.3 4.2 4.2 8.3 8.3c0.7 0.7 1.8 0.7 2.5 0q7.2-7.2 14.5-14.5c0.7-0.6 0.7-1.7 0-2.4q-4-4-8.1-8.1 0.2 1.1 0.3 2.1 1.8-3.2 2.9-6.8-0.8 0.7-1.6 1.3 5.6 0 11.3 0c2.2 0 2.2-3.4 0-3.4q-5.7 0-11.3 0c-0.8 0-1.5 0.5-1.7 1.2q-1 3.1-2.6 6c-0.3 0.7-0.2 1.5 0.3 2.1q4 4 8.1 8 0-1.2 0-2.4-7.3 7.3-14.6 14.5 1.3 0 2.5 0-4.2-4.1-8.3-8.3c-0.6-0.6-1.4-0.6-2.1-0.3q-2.8 1.4-5.8 2.3c-0.7 0.2-1.2 0.9-1.2 1.6q0 6 0 11.9 0.8-0.9 1.7-1.7-10.3 0-20.6 0 0.9 0.8 1.8 1.7 0-6.2 0-12.4c0-0.8-0.6-1.4-1.3-1.6q-2.7-0.9-5.2-2.3c-0.7-0.4-1.6-0.3-2.1 0.3q-4.4 4.3-8.8 8.7 1.2 0 2.4 0-7.2-7.2-14.5-14.5 0 1.2 0 2.4 4.5-4.5 9-9c0.6-0.6 0.6-1.4 0.3-2.1q-1.2-2.5-2.1-5.1c-0.2-0.8-0.8-1.3-1.6-1.3q-5.7 0-11.3 0 0.8 0.9 1.7 1.7 0-10.2 0-20.5-0.9 0.8-1.7 1.7 5.7 0 11.4 0c0.8 0 1.4-0.5 1.7-1.3q0.8-2.5 2-4.9c0.3-0.6 0.3-1.5-0.3-2q-4.5-4.5-9-9 0 1.2 0 2.4 7.2-7.3 14.5-14.5-1.2 0-2.4 0 4.4 4.4 8.8 8.8c0.5 0.5 1.4 0.6 2.1 0.2q2.5-1.3 5.2-2.3c0.7-0.2 1.3-0.8 1.3-1.6q0-6.2 0-12.3-0.9 0.9-1.7 1.7 10.2 0 20.5 0-0.9-0.8-1.7-1.7 0 5.9 0 11.9c0 0.7 0.5 1.4 1.3 1.6q2.9 0.9 5.7 2.3c0.7 0.3 1.5 0.3 2.1-0.3q4.1-4.1 8.3-8.3-1.3 0-2.5 0 7.3 7.3 14.6 14.6 0-1.2 0-2.5-4.1 4.1-8.1 8.1c-0.6 0.6-0.7 1.4-0.3 2.1q1.6 2.9 2.5 6c0.3 0.7 0.9 1.2 1.7 1.2q5.7 0 11.3 0-0.8-0.8-1.7-1.7 0 10.3 0 20.6c0 2.2 3.4 2.2 3.4 0z"/>
						<path id="&lt;Path&gt;" class="s2" d="m104.7 434.2c-8.1 0-15.6-5.1-18.3-12.7-2.8-7.8-0.4-16.6 6-21.9 6.2-5.2 15.4-5.7 22.3-1.6 7 4.2 10.8 12.6 9.1 20.6-1.8 9-9.9 15.6-19.1 15.6-2.2 0.1-2.2 3.5 0 3.5 9.6-0.1 18.2-6.1 21.6-15.2 3.3-8.9 0.4-19.5-7.1-25.5-7.4-6-18-6.9-26.3-2-8.3 5-12.5 14.8-10.7 24.3 2.1 10.6 11.8 18.3 22.5 18.4 2.2 0 2.2-3.4 0-3.5z"/>
					</g>
				</g>
			</g>
			<g id="&lt;Group&gt;">
				<path id="&lt;Compound Path&gt;" fill-rule="evenodd" class="s1" d="m246.1 294.1q-1 3.3-2.7 6.4l8 8-14.5 14.5-8.3-8.3q-2.9 1.5-6.2 2.4v11.9h-20.5v-12.4q-3-1-5.7-2.4l-8.7 8.7-14.6-14.5 9.1-9q-1.4-2.7-2.3-5.6h-11.3v-20.5h11.4q0.9-2.8 2.2-5.3l-9-9 14.5-14.6 8.8 8.8q2.8-1.4 5.7-2.4v-12.3h20.6v11.9q3.2 0.9 6.1 2.4l8.3-8.3 14.5 14.6-8.1 8q1.7 3.1 2.7 6.4h11.4v20.6zm-12-10.4c0-11.7-9.5-21.2-21.2-21.2-11.7 0-21.2 9.5-21.2 21.2 0 11.7 9.5 21.2 21.2 21.2 11.7 0 21.2-9.5 21.2-21.2z"/>
				<g id="&lt;Group&gt;">
					<g id="&lt;Group&gt;">
						<path id="&lt;Path&gt;" class="s2" d="m259.2 294.1q0-10.3 0-20.6c0-0.9-0.8-1.7-1.7-1.7q-5.7 0-11.4 0 0.9 0.6 1.7 1.3-1.1-3.6-2.9-6.8-0.1 1-0.2 2 4-4 8-8c0.7-0.7 0.7-1.8 0-2.5q-7.2-7.2-14.5-14.5c-0.6-0.6-1.8-0.6-2.4 0q-4.2 4.2-8.3 8.3 1-0.1 2.1-0.3-3.2-1.6-6.6-2.6 0.6 0.8 1.3 1.7 0-6 0-11.9c0-0.9-0.8-1.7-1.7-1.7q-10.3 0-20.6 0c-0.9 0-1.7 0.8-1.7 1.7q0 6.1 0 12.3 0.6-0.8 1.3-1.7-3.2 1.1-6.1 2.7 1 0.1 2.1 0.2-4.4-4.4-8.8-8.8c-0.7-0.6-1.8-0.6-2.5 0q-7.2 7.3-14.5 14.5c-0.7 0.7-0.7 1.8 0 2.5q4.5 4.5 9 9-0.1-1.1-0.3-2.1-1.4 2.8-2.3 5.7 0.8-0.6 1.6-1.2-5.7 0-11.4 0c-0.9 0-1.7 0.7-1.7 1.7q0 10.2 0 20.5c0 0.9 0.8 1.7 1.7 1.7q5.7 0 11.3 0-0.8-0.6-1.6-1.2 0.9 3.1 2.4 5.9 0.1-1 0.3-2-4.6 4.5-9.1 9c-0.6 0.7-0.6 1.8 0 2.4q7.3 7.3 14.5 14.6c0.7 0.6 1.8 0.6 2.5 0q4.4-4.4 8.8-8.8-1.1 0.1-2.1 0.2 2.9 1.6 6 2.7-0.6-0.8-1.2-1.7 0 6.2 0 12.4c0 0.9 0.8 1.7 1.7 1.7q10.3 0 20.5 0c1 0 1.8-0.8 1.8-1.7q0-6 0-11.9-0.7 0.9-1.3 1.7 3.4-1 6.6-2.6-1.1-0.1-2.1-0.3 4.1 4.2 8.3 8.3c0.6 0.7 1.8 0.7 2.4 0q7.3-7.2 14.5-14.5c0.7-0.6 0.7-1.8 0-2.4q-4-4-8-8.1 0.1 1.1 0.3 2.1 1.7-3.2 2.9-6.8-0.9 0.7-1.7 1.3 5.7 0 11.4 0c2.2 0 2.2-3.5 0-3.5q-5.7 0-11.4 0c-0.8 0-1.4 0.6-1.7 1.3q-0.9 3.1-2.5 6c-0.4 0.7-0.3 1.5 0.3 2.1q4 4 8 8 0-1.2 0-2.4-7.2 7.3-14.5 14.5 1.2 0 2.4 0-4.1-4.1-8.3-8.3c-0.6-0.6-1.4-0.6-2.1-0.3q-2.7 1.4-5.7 2.3c-0.7 0.2-1.3 0.9-1.3 1.6q0 5.9 0 11.9 0.9-0.9 1.7-1.7-10.2 0-20.5 0 0.9 0.8 1.7 1.7 0-6.2 0-12.4c0-0.8-0.5-1.4-1.3-1.6q-2.7-1-5.2-2.3c-0.7-0.4-1.5-0.3-2.1 0.2q-4.4 4.4-8.8 8.8 1.3 0 2.5 0-7.3-7.2-14.6-14.5 0 1.2 0 2.4 4.6-4.5 9.1-9c0.6-0.6 0.6-1.4 0.3-2.1q-1.3-2.5-2.1-5.1c-0.2-0.8-0.9-1.3-1.7-1.3q-5.6 0-11.3 0 0.9 0.9 1.8 1.7 0-10.3 0-20.5-0.9 0.8-1.8 1.7 5.7 0 11.4 0c0.8 0 1.5-0.5 1.7-1.3q0.8-2.5 2-4.9c0.4-0.6 0.3-1.5-0.3-2q-4.5-4.5-9-9.1 0 1.3 0 2.5 7.3-7.3 14.6-14.5-1.3 0-2.5 0 4.4 4.4 8.8 8.8c0.6 0.5 1.4 0.6 2.1 0.2q2.5-1.3 5.3-2.3c0.7-0.2 1.2-0.8 1.2-1.6q0-6.2 0-12.3-0.8 0.9-1.7 1.7 10.3 0 20.6 0-0.9-0.8-1.8-1.7 0 5.9 0 11.9c0 0.7 0.6 1.4 1.3 1.6q3 0.9 5.7 2.3c0.7 0.3 1.6 0.3 2.1-0.3q4.2-4.1 8.3-8.3-1.2 0-2.4 0 7.2 7.3 14.5 14.6 0-1.2 0-2.5-4 4.1-8.1 8.1c-0.5 0.6-0.6 1.4-0.2 2.1q1.5 2.9 2.5 6c0.2 0.7 0.9 1.2 1.6 1.2q5.7 0 11.4 0-0.9-0.8-1.8-1.7 0 10.3 0 20.6c0 2.2 3.5 2.2 3.5 0z"/>
						<path id="&lt;Path&gt;" class="s2" d="m213 303.2c-8.1 0-15.6-5.1-18.4-12.7-2.8-7.8-0.3-16.6 6-21.9 6.3-5.2 15.5-5.7 22.4-1.6 6.9 4.2 10.7 12.6 9.1 20.6-1.9 9-9.9 15.6-19.1 15.6-2.3 0-2.3 3.5 0 3.5 9.6-0.1 18.2-6.1 21.5-15.2 3.3-9 0.4-19.5-7-25.5-7.5-6-18.1-6.9-26.3-2-8.3 5-12.6 14.8-10.7 24.3 2.1 10.6 11.7 18.3 22.5 18.4 2.2 0 2.2-3.5 0-3.5z"/>
					</g>
				</g>
			</g>
			<g id="&lt;Group&gt;">
				<g id="&lt;Clip Group&gt;">
					<path id="&lt;Path&gt;" class="s3" d="m508.7 348h-140c-4.8 0-8.6-3.8-8.6-8.6v-88.1c0-4.7 3.8-8.6 8.6-8.6h140c4.8 0 8.6 3.9 8.6 8.6v88.1c0 4.8-3.8 8.6-8.6 8.6z"/>
					<g id="&lt;Group&gt;">
						<g id="&lt;Group&gt;">
							<path id="&lt;Path&gt;" class="s2" d="m356.9 241.5c4.6 5.7 9.8 11 15.1 16 6.5 6.3 13.3 12.3 20.2 18.1 12.1 10.3 24.5 20.5 37.7 29.4 1.8 1.2 3.6 2.4 5.5 3.4 1.1 0.6 2.4 1.4 3.7 1.3 1.3 0 2.7-0.8 3.8-1.4 1.9-1 3.8-2.2 5.6-3.4 13.2-8.9 25.6-19.2 37.2-30.1 7.1-6.5 13.9-13.3 20.2-20.6 5.9-6.7 11.4-13.7 16-21.4q1.4-2.5 2.8-5.2c0.9-2-2-3.7-3-1.7-3.7 7.5-8.6 14.3-13.9 20.8-5.9 7.3-12.5 14.2-19.3 20.8-11.8 11.4-24.5 22.3-38 31.8-2.2 1.5-4.3 3-6.6 4.4q-1.2 0.8-2.5 1.5-0.5 0.3-1 0.5-0.2 0.1-0.5 0.3c0 0-0.6 0.2-0.3 0.1 0.3-0.1-0.3 0.1-0.5 0.2 0 0-0.1 0-0.2 0-0.4 0.2 0.4 0 0.1 0-0.3 0 0.5 0.2 0 0-0.2-0.1-1-0.4-0.4-0.1-1.5-0.7-3-1.6-4.4-2.5-5.3-3.4-10.3-7.1-15.3-10.9-6.7-5.1-13.3-10.4-19.8-15.8-6.9-5.8-13.7-11.7-20.4-17.8-5.7-5.3-11.3-10.8-16.5-16.7q-1.5-1.7-2.9-3.4c-0.6-0.8-1.8-0.6-2.4 0-0.7 0.7-0.6 1.7 0 2.4z"/>
						</g>
					</g>
					<g id="&lt;Group&gt;">
						<g id="&lt;Group&gt;">
							<path id="&lt;Path&gt;" class="s2" d="m408 286.7c-13.8 17.6-27.1 35.6-39.7 54.1q-5.5 8-10.8 16.1c-1.2 1.9 1.8 3.6 3 1.8 12.2-18.6 24.9-36.7 38.3-54.4q5.8-7.6 11.7-15.1c0.6-0.8 0.7-1.7 0-2.5-0.6-0.6-1.9-0.7-2.5 0z"/>
						</g>
					</g>
					<g id="&lt;Group&gt;">
						<g id="&lt;Group&gt;">
							<path id="&lt;Path&gt;" class="s2" d="m527.7 356.5q-22.9-25.2-44.1-51.9-6-7.6-11.9-15.3c-0.6-0.8-1.5-1.1-2.3-0.6-0.8 0.4-1.2 1.6-0.7 2.3q20.9 27.4 43.5 53.3 6.5 7.4 13.1 14.6c1.5 1.7 3.9-0.8 2.4-2.4z"/>
						</g>
					</g>
					<g id="&lt;Group&gt;" clip-path="url(#cp1)">
					</g>
				</g>
				<g id="&lt;Group&gt;">
					<g id="&lt;Group&gt;">
						<path id="&lt;Path&gt;" class="s2" d="m508.7 346.3q-5.2 0-10.5 0-13 0-26 0-17 0-33.9 0-16.8 0-33.7 0-12.9 0-25.8 0-3.8 0-7.6 0c-1.1 0-2.3 0.1-3.4 0-3.5-0.5-5.9-3.5-6-6.9q0-0.6 0-1.3 0-4.1 0-8.2 0-15.3 0-30.7 0-16.3 0-32.7c0-5.2-0.2-10.4 0-15.5 0.2-3.7 3.3-6.5 6.9-6.6q0.4 0 0.7 0 2.8 0 5.5 0 11.5 0 22.9 0 16.4 0 32.8 0 17.2 0 34.5 0 14.2 0 28.4 0 7.4 0 14.7 0c4 0 7.3 2.7 7.4 6.9 0 1.6 0 3.1 0 4.7q0 13.6 0 27.1 0 17.1 0 34.1 0 10.6 0 21.2 0 0.7 0 1.4c-0.2 3.6-3.3 6.4-6.9 6.5-2.2 0.1-2.2 3.5 0 3.4 6.1-0.1 10.3-4.9 10.3-10.8q0-3.6 0-7.1 0-15 0-30.1 0-16.9 0-33.8c0-5.5 0.1-11 0-16.6-0.1-5.8-4.7-10.3-10.5-10.3q-2.2 0-4.4 0-11.1 0-22.1 0-16.3 0-32.7 0-17.6 0-35.2 0-14.7 0-29.3 0-7.7 0-15.4 0c-4.7 0-8.8 2.4-10.4 6.9-0.8 2.1-0.6 4.5-0.6 6.7q0 13 0 26 0 17.4 0 34.7 0 11.4 0 22.8 0 0.6 0 1.3c0 3.8 2.1 7.5 5.6 9.2 2.1 1.1 4.2 1.1 6.5 1.1q9.1 0 18.2 0 15.4 0 30.9 0 17.6 0 35.3 0 15.8 0 31.6 0 9.8 0 19.6 0 1.3 0 2.6 0c2.2 0 2.2-3.4 0-3.4z"/>
					</g>
				</g>
			</g>
			<g id="&lt;Group&gt;">
				<g id="&lt;Group&gt;">
					<path id="&lt;Path&gt;" class="s2" d="m424.2 171.1c2.9 10.3 11.2 18.6 21.5 21.5q0-1.7 0-3.4c-10.3 3-18.6 11.2-21.5 21.5q1.7 0 3.4 0c-3-10.3-11.2-18.5-21.5-21.5q0 1.7 0 3.4c10.3-2.9 18.5-11.2 21.5-21.5 0.6-2.2-2.8-3.1-3.4-0.9-2.6 9.1-9.9 16.4-19.1 19-1.6 0.5-1.6 2.9 0 3.4 9.2 2.6 16.5 9.9 19.1 19 0.5 1.7 2.9 1.7 3.4 0 2.6-9.1 9.9-16.4 19-19 1.7-0.5 1.7-2.9 0-3.4-9.1-2.6-16.4-9.9-19-19-0.6-2.2-4.1-1.3-3.4 0.9z"/>
				</g>
			</g>
			<g id="&lt;Group&gt;">
				<g id="&lt;Group&gt;">
					<path id="&lt;Path&gt;" class="s2" d="m462.4 104.7c1.9 6.6 7.2 11.9 13.8 13.8q0-1.1 0-2.2c-6.6 1.9-11.9 7.2-13.8 13.8q1.1 0 2.2 0c-1.9-6.6-7.2-11.9-13.8-13.8q0 1.1 0 2.2c6.6-1.9 11.9-7.2 13.8-13.8 0.4-1.4-1.8-2.1-2.2-0.6-1.7 5.8-6.3 10.5-12.2 12.2-1.1 0.3-1.1 1.9 0 2.2 5.9 1.7 10.5 6.3 12.2 12.2 0.3 1.1 1.9 1.1 2.2 0 1.7-5.9 6.4-10.5 12.2-12.2 1.1-0.3 1.1-1.9 0-2.2-5.8-1.7-10.5-6.4-12.2-12.2-0.4-1.4-2.6-0.9-2.2 0.6z"/>
				</g>
			</g>
			<g id="&lt;Group&gt;">
				<g id="&lt;Group&gt;">
					<path id="&lt;Path&gt;" class="s2" d="m514.6 436.4c1.9 6.6 7.2 11.9 13.8 13.8q0-1.1 0-2.2c-6.6 1.9-11.9 7.2-13.8 13.8q1.1 0 2.2 0c-1.9-6.6-7.2-11.9-13.8-13.8q0 1.1 0 2.2c6.6-1.9 11.9-7.2 13.8-13.8 0.4-1.4-1.8-2-2.2-0.6-1.7 5.8-6.4 10.5-12.2 12.2-1.1 0.3-1.1 1.9 0 2.2 5.8 1.7 10.5 6.3 12.2 12.2 0.3 1.1 1.9 1.1 2.2 0 1.7-5.9 6.4-10.5 12.2-12.2 1.1-0.3 1.1-1.9 0-2.2-5.8-1.7-10.5-6.4-12.2-12.2-0.4-1.4-2.6-0.8-2.2 0.6z"/>
				</g>
			</g>
			<path id="&lt;Path&gt;" class="s3" d="m237.1 111.3h-65.7c0 0-7.3-19.4 11.8-14.3 0 0 0-21.4 19.3-20.4 19.7 1 20.2 27.1 20.2 27.1 0 0 3-9.5 11.9-6.7 8.9 2.7 2.5 14.3 2.5 14.3z"/>
			<path id="&lt;Path&gt;" class="s3" d="m511.2 218.9h-46.7c0 0-5.2-13.9 8.4-10.2 0 0 0-15.2 13.7-14.5 14 0.7 14.4 19.3 14.4 19.3 0 0 2.1-6.8 8.4-4.8 6.3 1.9 1.8 10.2 1.8 10.2z"/>
			<path id="&lt;Path&gt;" class="s3" d="m969.3 432.6h-46.7c0 0-5.2-13.8 8.4-10.2 0 0 0-15.2 13.7-14.5 14 0.7 14.4 19.3 14.4 19.3 0 0 2.1-6.7 8.4-4.8 6.3 1.9 1.8 10.2 1.8 10.2z"/>
			<path id="&lt;Path&gt;" class="s3" d="m654.2 461.5h-65.8c0 0-7.2-19.4 11.9-14.3 0 0 0-21.4 19.3-20.4 19.6 1 20.2 27.1 20.2 27.1 0 0 3-9.4 11.9-6.7 8.9 2.7 2.5 14.3 2.5 14.3z"/>
			<path id="&lt;Path&gt;" class="s3" d="m219.4 213.5h-65.8c0 0-7.2-19.4 11.9-14.4 0 0 0-21.4 19.3-20.3 19.6 1 20.2 27.1 20.2 27.1 0 0 3-9.5 11.9-6.8 8.8 2.7 2.5 14.4 2.5 14.4z"/>
			<g id="&lt;Group&gt;">
				<path id="&lt;Path&gt;" class="s4" d="m134.5 382c0 0 37.3-98.9 112.7-93.6 0 0 67 11.4 89.2 1.1 22.2-10.2 89.2 27.5 114.1 84.2 0 0-14.3 22.1-34.1 27.8v90.4h-254.1z"/>
				<g id="&lt;Group&gt;">
					<g id="&lt;Group&gt;">
						<path id="&lt;Path&gt;" class="s2" d="m136.1 382.4q0.1-0.4 0.3-0.9 0.2-0.5 0.4-1 0.2-0.3 0.3-0.6c0.2-0.6 0 0.1 0.2-0.5q1.9-4.4 4-8.8c4.7-9.6 10.1-18.9 16.2-27.7 7.6-11.1 16.5-21.6 26.8-30.4 11-9.3 23.7-16.7 37.8-20.3 7.5-1.9 15.4-2.7 23.2-2.3 2.4 0.1 5.2 0.7 7.8 1 13.3 2 26.8 3.5 40.3 4.2 7.8 0.4 15.6 0.5 23.4 0 6.2-0.4 12.8-1.1 18.6-3.4 2-0.8 3.7-1.6 6-1.9 2.1-0.4 4.6-0.4 6.8-0.2 6 0.5 11.8 2.2 17.3 4.4 15 5.7 28.8 14.8 41 25.2 14.3 12.1 26.9 26.5 36.3 42.8q3.5 6.1 6.3 12.5 0-0.8 0-1.6c-5.4 8.3-12.8 15.9-21.1 21.3-3.7 2.5-7.7 4.5-12.1 5.8-0.7 0.2-1.2 0.8-1.2 1.5q0 15.4 0 30.7 0 24.3 0 48.5 0 5.6 0 11.2 0.9-0.9 1.7-1.7-3.4 0-6.9 0-9.2 0-18.4 0-13.7 0-27.3 0-16.7 0-33.4 0-18.2 0-36.5 0-18.5 0-36.9 0-17.2 0-34.4 0-14.5 0-29.1 0-10.4 0-20.9 0c-3.2 0-6.6-0.3-9.9 0q-0.2 0-0.4 0 0.8 0.6 1.6 1.2-1.4-5.4-2.8-10.9-3.3-13.1-6.6-26.3-4-15.8-8-31.7-3.5-13.7-7-27.4-1.1-4.5-2.3-9.1c-0.3-1.4-0.6-2.9-1.1-4.3q0-0.1 0-0.2c-0.5-2-3.7-1.1-3.2 0.9q1.4 5.4 2.8 10.9 3.3 13.1 6.6 26.3 4.1 15.8 8.1 31.7 3.4 13.7 6.9 27.4 1.2 4.6 2.3 9.1c0.4 1.4 0.6 2.9 1.1 4.3q0 0.1 0 0.2c0.2 0.7 0.9 1.2 1.6 1.2q3.4 0 6.8 0 9.3 0 18.5 0 13.6 0 27.3 0 16.7 0 33.4 0 18.2 0 36.5 0 18.4 0 36.9 0 17.2 0 34.3 0 14.6 0 29.2 0 10.4 0 20.8 0c3.3 0 6.6 0.1 9.9 0q0.3 0 0.5 0c0.8 0 1.6-0.8 1.6-1.6q0-15.4 0-30.7 0-24.3 0-48.5 0-5.6 0-11.2-0.6 0.8-1.2 1.6c9.8-2.9 18.2-9.2 25.2-16.5q3.9-4 7.3-8.5c0.9-1.1 2.2-2.4 2.7-3.8 0.4-1.1-0.5-2.5-1-3.5q-0.9-2-1.9-4-1.8-3.6-3.9-7-4-7-8.7-13.4c-6.3-8.6-13.4-16.5-21.2-23.8-13.6-12.6-29.2-23.6-46.4-30.8-6.4-2.6-13.2-4.8-20.2-5.4-2.7-0.3-5.4-0.2-8.1 0.2-2.5 0.4-4.6 1.5-7 2.3-6.8 2.5-14.4 3-21.7 3.2-8.9 0.3-17.9-0.1-26.8-0.8-12.3-0.9-24.6-2.4-36.8-4.4-6.5-1-13.7-0.3-20.2 0.7-8.3 1.4-16.2 4-23.7 7.7-14.4 7.1-26.8 17.8-37.3 29.8-9.1 10.5-16.9 22.1-23.6 34.3-3.8 6.8-7.2 13.8-10.2 21.1q-0.2 0.5-0.4 1c-0.7 2 2.4 2.8 3.2 0.9z"/>
					</g>
				</g>
				<g id="&lt;Group&gt;">
					<g id="&lt;Group&gt;">
						<path id="&lt;Path&gt;" class="s2" d="m238.9 304.8c10.2 17.6 21.6 36.6 41.3 44.8 8.9 3.7 19.3 4.6 28.5 1.3 9.5-3.5 16.1-11.2 21.6-19.4 6.9-10.1 12.4-21.1 16.7-32.6 0.7-1.9-2.5-2.8-3.2-0.8-3.6 9.7-8.2 19-13.7 27.8-5 7.9-10.7 16.2-19.3 20.6-8.3 4.2-18.4 4-27.1 1-8.8-3.1-16.3-8.9-22.5-15.7-7.9-8.5-13.7-18.6-19.5-28.6-1-1.8-3.8-0.2-2.8 1.6z"/>
					</g>
				</g>
				<path id="&lt;Path&gt;" class="s5" d="m135.3 317.4l30.1 122 26.6 14.1c0 0-3.1 39.5-21.4 40.6-18.3 1-45.6-17-52.2-47.8-4-18.9-8-121.5-8-121.5z"/>
				<g id="&lt;Group&gt;">
					<path id="&lt;Path&gt;" class="s2" d="m343.9 193.4c13.6-3.5 25.2-13.6 31.8-26.3 6.7-12.7 8.6-27.7 6.7-42-1.1-9-3.8-17.8-8.2-25.7-10.1-17.9-29.2-29.5-49.1-32.2-20-2.7-40.5 3.1-57.7 14-16.9 10.8-30.8 26.3-48.4 35.8-5.5 2.9-11.4 5.4-15.9 9.8-8.2 8.3-9.5 21.9-6 33.2 3.5 11.3 10.9 20.8 18.2 30z"/>
				</g>
				<g id="&lt;Group&gt;">
					<path id="&lt;Path&gt;" class="s5" d="m344.8 192.1c0.8-4.8 2.4-9.6 5.3-13.6 2.9-3.9 7.1-7 11.9-8 4.8-1 10.2 0.4 13.5 4.1 1.9 2 3 4.6 3.8 7.3 2.7 9.3 1.3 19.7-3.6 28.1-4.4 7.7-11.8 13.7-20.4 15.7-3 0.7-6.2 0.9-9.3 0.3-3.1-0.7-6-2.3-8-4.7z"/>
					<g id="&lt;Group&gt;">
						<g id="&lt;Group&gt;">
							<path id="&lt;Path&gt;" class="s2" d="m368.8 188.6c-5.5 1.7-10.7 5.4-14.7 9.6-4 4.2-6.7 9.5-7.5 15.3-0.1 0.9 0.9 1.7 1.7 1.7 0.9 0 1.5-0.8 1.6-1.7 0.6-5 3.3-9.7 6.8-13.3 3.6-3.7 8.1-7 13-8.5 2-0.6 1.1-3.7-0.9-3.1z"/>
						</g>
					</g>
					<g id="&lt;Group&gt;">
						<g id="&lt;Group&gt;">
							<path id="&lt;Path&gt;" class="s2" d="m355.7 200q0.6 0.1 1.2 0.3c0.2 0.1 0.1 0.1 0 0 0 0.1 0.2 0.1 0.3 0.2q0.2 0.1 0.5 0.2 0.2 0.2 0.5 0.4c0 0 0.2 0.2 0.3 0.2-0.1 0-0.3-0.2 0 0q0.4 0.4 0.8 0.8c0.2 0.1 0.3 0.3 0.4 0.5-0.1-0.3 0-0.1 0 0q0.1 0.1 0.2 0.2 0.4 0.5 0.7 1.1 0.1 0.3 0.3 0.6c0 0 0.1 0.4 0 0.1-0.1-0.2 0.1 0.1 0.1 0.2q0.2 0.6 0.4 1.3c0.2 0.8 1.2 1.4 2 1.1 0.8-0.3 1.4-1.1 1.1-2-1-3.9-3.8-7.5-7.9-8.3-0.9-0.2-1.8 0.2-2 1.1-0.2 0.8 0.2 1.8 1.1 2z"/>
						</g>
					</g>
					<g id="&lt;Group&gt;">
						<g id="&lt;Group&gt;">
							<path id="&lt;Path&gt;" class="s2" d="m346.4 192.6c1.3-7.8 4.8-15.6 12.3-19.3 3.2-1.6 6.9-1.9 10.4-0.9 3.7 1.2 6.2 3.9 7.7 7.3 6.1 14.4-0.3 32.7-13.4 40.9-7 4.4-18.1 6.8-24.2-0.4q0.2 0.7 0.4 1.5 2.9-12.7 5.9-25.5 0.4-1.8 0.9-3.6c0.4-2.1-2.7-2.9-3.2-0.9q-2 8.6-4 17.2-1.1 5-2.3 10c-0.1 0.6-0.3 1.3-0.4 1.9-0.3 1.4 0.9 2.4 1.9 3.2q1.9 1.6 4.2 2.6c6.6 2.8 14.3 1.2 20.5-2.1 5.7-3 10.5-7.8 13.8-13.3 3.6-6.1 5.5-13.2 5.4-20.3-0.1-6.5-1.8-14.6-7.2-18.9-5.2-4.1-12.4-4.3-18.3-1.4-6.2 3.1-10.3 9.3-12.3 15.8q-0.8 2.6-1.3 5.3c-0.3 2 2.8 2.9 3.2 0.9z"/>
						</g>
					</g>
				</g>
				<path id="&lt;Path&gt;" class="s5" d="m247.2 288.4c0 0 29.1-3.5 24.3-35.7h44.1c0 0-8.2 19.3 20.8 36.8 0 0-23 45.7-42.9 45.7-19.8 0-46.3-46.8-46.3-46.8z"/>
				<path id="&lt;Path&gt;" class="s2" d="m300.1 279.7c6-4.5 11.1-9.9 14.8-16-1.2-6.6 0.7-11 0.7-11h-44.1c0.7 4.4 0.7 8.3 0.2 11.8 6.1 11.6 15.6 24.6 28.4 15.2z"/>
				<path id="&lt;Path&gt;" class="s5" d="m354.7 155.7c-0.8-11.4-5-22.4-12.5-31.2-8.9-10.6-24.3-21-50.2-20.1q-0.9 0-1.7 0.1-0.8 0-1.6 0c-25.9 0.9-40.6 12.3-48.8 23.5-6.8 9.2-10.3 20.5-10.3 32 0 27.1 5.4 101.1 65 99.1q0.5 0 1-0.1 0.5 0 1 0c59.6-2 59.9-76.2 58.1-103.3z"/>
				<g id="&lt;Group&gt;">
					<g id="&lt;Group&gt;">
						<path id="&lt;Path&gt;" class="s2" d="m356.3 155.7c-0.9-11.4-4.9-22.4-12.1-31.4-4.9-6.1-11.2-11.2-18.2-14.7-9.1-4.6-19.3-6.7-29.5-6.9-11.1-0.1-22.4 0.9-32.7 5-17.4 6.9-30.7 21.9-34.6 40.4-1.4 6.8-1.3 13.8-1 20.7q0.3 8.5 1.3 16.9c1.7 13.2 4.6 26.3 10 38.4 5.4 12.1 13.6 23.3 25.3 29.9 6.3 3.6 13.4 5.6 20.6 6.4 4.2 0.5 8.5 0.4 12.7 0.2 4-0.2 8-0.8 11.9-1.8 13.5-3.3 24.6-12 32-23.7 7.2-11.3 10.9-24.5 12.9-37.7 1.7-11.7 2.2-23.5 1.7-35.4q-0.1-3.1-0.3-6.3c-0.2-2.1-3.4-2.1-3.3 0 0.7 10.3 0.7 20.7-0.1 31.1-1.1 12.6-3.5 25.4-8.6 37.1-5.1 11.6-13.1 22-24.6 27.9-6.4 3.3-13.5 5-20.7 5.5-7.7 0.5-15.5 0.2-22.9-2-12.5-3.8-22.3-12.6-28.9-23.5-6.7-11.1-10.5-23.6-12.9-36.2-1.9-10.7-2.9-21.6-3-32.4-0.1-3.8 0-7.6 0.5-11.3 0.9-5.6 2.6-11.1 5.2-16.2 3.7-7.2 9.2-13.5 15.7-18.3 7.4-5.3 16-8.6 24.9-10.1 5.6-1 11.4-1.3 17.1-1.3 5.4 0 10.9 0.5 16.2 1.6 17.3 3.9 32.2 15.6 38.6 32.3 2 5.1 3.1 10.4 3.5 15.8 0.2 2.1 3.4 2.1 3.3 0z"/>
					</g>
				</g>
				<g id="&lt;Group&gt;">
					<path id="&lt;Path&gt;" class="s5" d="m237.5 191.8c-1.1-4.8-3.1-9.4-6.2-13.2-3.2-3.7-7.6-6.6-12.5-7.2-4.8-0.6-10.1 1.1-13.1 5-1.8 2.2-2.7 4.8-3.3 7.5-2.1 9.5 0 19.8 5.5 27.9 4.9 7.3 12.7 12.8 21.4 14.3 3.1 0.5 6.3 0.4 9.3-0.4 3-0.9 5.8-2.7 7.6-5.2z"/>
					<g id="&lt;Group&gt;">
						<g id="&lt;Group&gt;">
							<path id="&lt;Path&gt;" class="s2" d="m212.5 193.1c5.1 1.1 9.9 4.1 13.7 7.6 3.8 3.5 6.7 8 7.7 13.1 0.4 2.1 3.6 1.2 3.2-0.8-1.1-5.7-4.4-10.8-8.6-14.6-4.2-3.8-9.5-7.2-15.1-8.5-2.1-0.4-2.9 2.7-0.9 3.2z"/>
						</g>
					</g>
					<g id="&lt;Group&gt;">
						<g id="&lt;Group&gt;">
							<path id="&lt;Path&gt;" class="s2" d="m226.2 197.3c-4.1 1.1-6.7 4.8-7.5 8.8-0.1 0.8 0.3 1.8 1.2 2 0.8 0.2 1.8-0.3 2-1.2q0.1-0.6 0.3-1.2 0.1-0.3 0.2-0.6 0-0.2 0.1-0.3 0-0.1 0-0.2 0.1-0.1 0 0.1c0-0.2 0.2-0.4 0.3-0.5q0.1-0.3 0.3-0.6 0.1-0.3 0.3-0.5 0.1-0.2 0.2-0.3c0.2-0.3-0.1 0.1 0 0q0.4-0.5 0.8-0.9 0.2-0.2 0.5-0.4c0.2-0.2-0.2 0.1 0 0q0.1-0.1 0.2-0.2 0.5-0.3 1.1-0.6c0 0 0.2-0.1 0.2-0.1q-0.3 0.2-0.1 0.1 0 0 0.1-0.1 0.3-0.1 0.6-0.1c0.8-0.3 1.4-1.2 1.2-2.1-0.3-0.8-1.2-1.3-2-1.1z"/>
						</g>
					</g>
				</g>
				<g id="&lt;Group&gt;">
					<g id="&lt;Group&gt;">
						<path id="&lt;Path&gt;" class="s2" d="m298.6 218c3.7-0.4 6.9-2.3 8.9-5.4 2.3-3.4 2.3-7.3 1.1-11.1-1.3-4.2-3.3-8.3-4.7-12.6q-2.3-6.6-3.8-13.5c-0.5-2-3.6-1.2-3.1 0.9 1.7 7.9 4.3 15.6 7.4 23.1 1.3 3.2 2.7 6.9 1 10.3-1.2 2.7-3.8 4.7-6.8 5.1-2.1 0.2-2.1 3.4 0 3.2z"/>
					</g>
				</g>
				<path id="&lt;Path&gt;" class="s2" d="m266.4 188.8c0 3.2 1.3 5.8 3 5.8 1.7 0 3-2.6 3-5.8 0-3.2-1.3-5.8-3-5.8-1.7 0-3 2.6-3 5.8z"/>
				<path id="&lt;Path&gt;" class="s2" d="m319.1 188.8c0 3.2 1.3 5.8 3 5.8 1.7 0 3-2.6 3-5.8 0-3.2-1.3-5.8-3-5.8-1.7 0-3 2.6-3 5.8z"/>
				<path id="&lt;Path&gt;" class="s2" d="m340.5 169.7c0 0-15.8-11.8-30.5-9.2 0 0 2-8.1 12.7-6.9 14.8 1.8 17.8 16.1 17.8 16.1z"/>
				<path id="&lt;Path&gt;" class="s2" d="m249 172.2c0 0 15.8-11.7 30.5-9.2 0 0-1.9-8.1-12.7-6.8-14.7 1.7-17.8 16-17.8 16z"/>
				<path id="&lt;Path&gt;" class="s6" d="m250.6 212.9c0 7.5 6.1 13.7 13.7 13.7 7.5 0 13.7-6.2 13.7-13.7 0-7.6-6.2-13.7-13.7-13.7-7.6 0-13.7 6.1-13.7 13.7z"/>
				<path id="&lt;Path&gt;" class="s6" d="m313.6 212.9c0 7.5 6.2 13.7 13.7 13.7 7.6 0 13.7-6.2 13.7-13.7 0-7.6-6.1-13.7-13.7-13.7-7.5 0-13.7 6.1-13.7 13.7z"/>
				<g id="&lt;Group&gt;">
					<g id="&lt;Group&gt;">
						<path id="&lt;Path&gt;" class="s2" d="m296.2 229.3c-12.9 1.2-25.2-5.3-31.5-16.6-1-1.9-3.9-0.2-2.8 1.6 6.7 12.3 20.3 19.6 34.3 18.2 2.1-0.2 2.1-3.4 0-3.2z"/>
					</g>
				</g>
				<path id="&lt;Path&gt;" class="s2" d="m215.5 171.3c0 0 15.6 0.4 23.3 19.6 0 0 32.6-21.6 24.5-64.5 0 0 68.4-35 96.2 37.8 0 0 25.2-71.9-51.7-70.2-76.8 1.6-94.4 42.7-92.3 77.3z"/>
				<g id="&lt;Group&gt;">
					<g id="&lt;Group&gt;">
						<path id="&lt;Path&gt;" class="s2" d="m267.9 113.8c3.2 9.9 3.7 20.7 0.9 30.8-2.5 8.8-7.7 16.7-14.8 22.5-3.8 3.2-8.3 5.6-13.1 7.1-2 0.6-1.1 3.8 0.9 3.1 9.1-2.9 16.9-8.8 22.6-16.5 6.3-8.4 9.4-18.9 9.5-29.3 0.1-6.3-0.9-12.6-2.9-18.6-0.6-2-3.8-1.1-3.1 0.9z"/>
					</g>
				</g>
				<g id="&lt;Group&gt;">
					<g id="&lt;Group&gt;">
						<path id="&lt;Path&gt;" class="s2" d="m322.1 70.4c17.4 0 35.2 5.5 48 17.6 11.5 11 18.5 26.9 16.1 42.9-1.4 8.9-5.3 17.4-11.7 23.7-1.5 1.5 0.8 3.8 2.3 2.3 12.2-12 15.9-30.8 10.9-47-5.2-16.7-18.5-29.9-34.5-36.6-9.8-4.2-20.5-6.2-31.1-6.2-2.1 0-2.1 3.3 0 3.3z"/>
					</g>
				</g>
				<g id="&lt;Group&gt;">
					<path id="&lt;Path&gt;" class="s2" d="m441.3 500h-205.8v-146.8c0-4.7 3.8-8.6 8.5-8.6h191c4.7 0 8.6 3.9 8.6 8.6v144.6c0 1.2-1 2.2-2.3 2.2z"/>
					<path id="&lt;Path&gt;" class="s2" d="m441.3 500h-286.8c-1.2 0-2.2-1-2.2-2.2v-7.4c0-1.3 1-2.3 2.2-2.3h289.1v9.7c0 1.2-1 2.2-2.3 2.2z"/>
					<path id="&lt;Path&gt;" class="s3" d="m328.4 419.2c0 8.2 6.7 14.8 14.9 14.8 8.2 0 14.8-6.6 14.8-14.8 0-8.2-6.6-14.9-14.8-14.9-8.2 0-14.9 6.7-14.9 14.9z"/>
				</g>
				<g id="&lt;Group&gt;">
					<path id="&lt;Path&gt;" class="s7" d="m135.8 155.3c0-23.3-19.3-42.1-42.8-41.2-21 0.8-38.2 17.5-39.6 38.4-1.1 17.8 8.9 33.3 23.8 40.2v12.6c0 2.8 2.2 5 4.9 5h25c2.7 0 4.9-2.2 4.9-5v-12.6c14.1-6.5 23.8-20.8 23.8-37.4z"/>
					<g id="&lt;Group&gt;">
						<g id="&lt;Group&gt;">
							<path id="&lt;Path&gt;" class="s2" d="m137.5 155.3c-0.1-11.7-4.9-23.1-13.5-31.2-8.5-8-20.2-12.3-31.9-11.6-11.9 0.7-23.1 6.5-30.7 15.7-7.7 9.5-11.1 21.9-9.1 34.1 1.9 12.2 9.5 23.2 20 29.7q2 1.2 4.1 2.1-0.4-0.7-0.8-1.4c0 4.2-0.1 8.3 0 12.5 0 3.7 2.8 6.6 6.5 6.7 1.2 0 2.3 0 3.5 0q8.1 0 16.3 0 2.4 0 4.9 0c3.2 0 6.1-2.1 6.7-5.3 0.4-2.3 0.1-4.8 0.1-7.1q0-3.4 0-6.8-0.4 0.7-0.8 1.4c11.3-5.3 20-15.6 23.2-27.7 1-3.6 1.5-7.4 1.5-11.1 0-2.1-3.3-2.1-3.3 0-0.1 15.5-9.1 29.5-23 36-0.6 0.3-0.9 0.9-0.9 1.4q0 6 0 12.1c0 2-1 3.8-3.3 3.8-1.3 0.1-2.6 0-3.9 0q-7.7 0-15.4 0-2.5 0-5 0c-2.1 0-3.8-1.1-3.9-3.3-0.1-4.2 0-8.4 0-12.6 0-0.5-0.3-1.1-0.8-1.4-10.4-4.9-18.5-14.1-21.6-25.3-3.1-11-1.2-22.9 5.1-32.5 6.1-9.1 15.9-15.5 26.7-17.3 10.7-1.8 22 1.1 30.6 7.8 9.7 7.4 15.4 19.1 15.4 31.3 0 2.1 3.3 2.1 3.3 0z"/>
						</g>
					</g>
					<g id="&lt;Group&gt;">
						<g id="&lt;Group&gt;">
							<path id="&lt;Path&gt;" class="s2" d="m90.5 200.1c2.1-7.4 3.2-15.1 3.1-22.8q0-5.9-0.8-11.7c-0.5-3.5-1.2-7-2.5-10.3-1.2-3.1-3-6.3-5.9-8.1-2.6-1.6-5.8-1.2-8.1 0.9-5.7 5.2-1.5 13.3 2.2 18.2 2 2.6 4.3 5.5 7.4 6.8 3.1 1.3 6.8 0.9 9.9-0.1 5.5-1.6 10.2-5.5 13.1-10.4 2.6-4.6 4.3-11.7 0.7-16.3-2-2.5-5.2-2.8-7.5-0.7-2.3 2.1-3.6 5.3-4.2 8.3-0.8 3.6-0.8 7.3-0.8 11q0 7 0 13.9 0 13.7-0.1 27.4c0 2.1 3.3 2.1 3.3 0q0-20.8 0.1-41.5c0-5.3-0.3-11.5 3.2-15.9 0.5-0.7 1.4-1.7 2.4-1.3 1 0.3 1.6 1.5 1.9 2.4 0.8 2.2 0.5 4.7-0.1 6.9-1.3 4.7-4.5 8.7-8.6 11.2-2 1.2-4.3 2.1-6.6 2.4-3.1 0.5-5.8 0-8.1-2.2-2.2-2.1-4.1-4.5-5.6-7.2-1.5-2.4-2.9-5.5-1.8-8.4 0.8-2.1 2.9-3.9 5.2-2.8 2.4 1.1 4 4 4.9 6.4 1.3 3.2 1.9 6.7 2.4 10.1 0.5 3.6 0.8 7.3 0.8 11 0 7.4-1 14.8-3 21.9-0.6 2 2.6 2.9 3.1 0.9z"/>
						</g>
					</g>
					<path id="&lt;Path&gt;" class="s2" d="m75.7 210.9h35.7c2.5 0 4.6-2.1 4.6-4.6 0-2.5-2.1-4.6-4.6-4.6h-35.7c-2.5 0-4.5 2.1-4.5 4.6 0 2.5 2 4.6 4.5 4.6z"/>
					<path id="&lt;Path&gt;" class="s2" d="m78.3 218.7h30.5c2.2 0 3.9-1.7 3.9-3.9 0-2.2-1.7-3.9-3.9-3.9h-30.5c-2.1 0-3.9 1.7-3.9 3.9 0 2.2 1.8 3.9 3.9 3.9z"/>
					<path id="&lt;Path&gt;" class="s2" d="m81.8 224.8h23.6c1.6 0 3-1.4 3-3.1 0-1.6-1.4-3-3-3h-23.6c-1.7 0-3.1 1.4-3.1 3 0 1.7 1.4 3.1 3.1 3.1z"/>
				</g>
				<g id="&lt;Group&gt;">
					<path id="&lt;Path&gt;" class="s5" d="m137.3 321.3c0 0 7-15.2 8.8-29.9 1.9-14.6 15.4-22 15.4-22 0 0-3.4-9-15.4-4.4-11.9 4.6-15.6 13.8-23.3 2.6-7.7-11.2-18.1-39.3-27.9-33.7-9.7 5.6 12.3 36.3 12.3 36.3 0 0-8-3.5-14.7-0.8-6.7 2.8 1.7 14.3 1.7 14.3 0 0-7.5-2.7-13.4 1.3-5.9 4.1 6.1 15.4 6.1 15.4 0 0-5.9-3.9-8.8 0.4-4.8 6.8 21.3 31.9 38.2 30.3 17-1.7 21-9.8 21-9.8z"/>
					<g id="&lt;Group&gt;">
						<g id="&lt;Group&gt;">
							<path id="&lt;Path&gt;" class="s2" d="m108.2 296.7q3.8 7.3 8.8 13.8c0.6 0.7 1.4 1.1 2.3 0.6 0.6-0.4 1.1-1.5 0.5-2.2q-5-6.6-8.8-13.9c-0.9-1.8-3.7-0.2-2.8 1.7z"/>
						</g>
					</g>
					<g id="&lt;Group&gt;">
						<g id="&lt;Group&gt;">
							<path id="&lt;Path&gt;" class="s2" d="m137.6 323.8c1.6-2.1 2.4-4.6 3.3-7 2.1-5.2 3.8-10.4 5.1-15.8 0.8-3.2 1.3-6.4 1.8-9.6 0.3-2.4 1-4.8 2-7.1 1.8-3.7 4.4-7 7.5-9.7 1.5-1.4 3.2-2.8 5.1-3.8 0.5-0.3 1-1.2 0.7-1.8-1.1-2.8-3.5-5-6.3-6.1-6.2-2.5-13.1 1-18.4 4.2-2.1 1.3-4.2 2.9-6.5 3.8-2 0.7-3.6 0.4-5.2-1.1-2-2-3.5-4.5-4.9-6.8-1.5-2.6-2.9-5.2-4.3-7.8-2.8-5.4-5.6-10.8-9.2-15.7-2.5-3.4-5.9-7.8-10.5-8-4-0.1-6.6 3-6.9 6.7-0.4 4.2 1.4 8.6 3 12.3 1.9 4.4 4.3 8.6 6.8 12.6 1.5 2.5 3 5.2 4.9 7.5q0.1 0.2 0.2 0.4 1.1-1.1 2.3-2.2c-5-2.2-11.7-3.1-16.7-0.7-5 2.5-2.9 8.7-1 12.5 0.7 1.4 1.5 2.7 2.4 4q0.9-1.2 1.8-2.4c-4.6-1.7-10.8-2-14.7 1.4-4.5 4.1-0.6 10.5 2.3 14.1 1.1 1.4 2.3 2.7 3.5 3.9q1-1.3 2-2.6c-2.9-1.9-7.2-2.8-10-0.2-2.5 2.3-2 5.5-0.7 8.3 1.6 3.6 4.3 6.7 7 9.5 3.5 3.5 7.3 6.7 11.5 9.3 4.5 2.9 9.5 5.4 14.8 6.4 2.1 0.4 2.9-2.7 0.9-3.1-8.4-1.6-16.1-6.7-22.3-12.4-2.8-2.5-5.4-5.3-7.5-8.5-0.8-1.1-1.5-2.4-1.9-3.6q-0.1-0.4-0.2-0.8c-0.1-0.1-0.2-0.8-0.2-0.5q0-0.4 0-0.7c0 0 0.1-0.5 0-0.2 0 0.2 0.1-0.3 0.1-0.3 0.1-0.4-0.1 0 0.1-0.4q0.4-0.5 0.9-0.9c0.7-0.5 1.6-0.5 2.4-0.4 1.2 0.2 2.4 0.7 3.4 1.3 1.6 1.1 3.4-1.3 2-2.5-2.4-2.2-4.6-4.9-6-7.8-0.7-1.5-1.4-3.5-0.4-5 1.5-2 4.6-2.3 6.9-2.2 1.8 0.1 3.6 0.4 5.3 1 1.3 0.5 2.6-1.3 1.8-2.4-1.6-2.2-3.1-4.8-3.8-7.5-0.4-1.5-0.6-3.2 0.6-4.1 1.1-0.8 2.7-1.1 3.9-1.2 1.6-0.2 3.1-0.1 4.7 0.1q2 0.3 4 0.9 0.6 0.2 1.2 0.4c0.2 0.1 1 0.4 0.2 0.1 1.3 0.5 3.3-0.8 2.2-2.3-3.6-5.1-7-10.5-9.8-16.1-1.9-3.8-3.8-7.7-4.5-11.9-0.3-1.5-0.3-3 0.1-4.3 0.1-0.3 0.4-0.9 0.7-1.2 0.4-0.4 0.9-0.7 1.5-0.9 1.3-0.3 2.5 0.1 3.9 1 1.7 1.1 3.2 2.8 4.4 4.5 3.5 4.6 6.3 9.8 9 14.9 2.6 4.7 5 9.7 8.2 14.1 1.6 2.1 3.6 4.3 6.2 5 2.2 0.5 4.4-0.2 6.3-1.2 5.4-2.8 10.2-7.2 16.5-7.8 2.2-0.2 4.4 0.2 6.3 1.5 1.1 0.7 1.8 1.6 2.4 2.7 0.2 0.3 0.4 0.9 0.2 0.3q0.3-1 0.7-1.9c-5 2.8-9.5 7.4-12.4 12.3-1.3 2.1-2.3 4.5-3 6.9-0.8 2.8-1 5.7-1.5 8.6-1.2 5.9-2.9 11.8-5 17.4-0.7 2-1.5 4.1-2.2 5.8-0.4 0.8-0.7 1.8-1.3 2.5-1.3 1.6 1 3.9 2.3 2.3z"/>
						</g>
					</g>
					<g id="&lt;Group&gt;">
						<g id="&lt;Group&gt;">
							<path id="&lt;Path&gt;" class="s2" d="m85.4 301.2q0.5 0.5 1 1 0.6 0.5 1.1 1.1 0.3 0.3 0.6 0.6 0.2 0.2 0.3 0.4c0.2 0.2 0.2 0.3 0.2 0.3 0.8 1 1.7 2.5 2.1 3.4q0.4 1.1 0.6 2.2 0 0.2 0.1 0.7c0 0.3-0.1 0.8-0.1 1-0.1 0.7-0.4 1.4-0.8 2.1-0.6 0.9-1.3 1.6-2.2 2.3-0.7 0.5-0.5 1.7 0 2.3 0.7 0.6 1.6 0.5 2.3 0 3.2-2.5 4.7-6.3 3.6-10.3-0.8-3-2.8-5.7-4.9-7.9q-0.8-0.8-1.6-1.5c-0.7-0.6-1.6-0.7-2.3 0-0.6 0.6-0.7 1.7 0 2.3z"/>
						</g>
					</g>
					<g id="&lt;Group&gt;">
						<g id="&lt;Group&gt;">
							<path id="&lt;Path&gt;" class="s2" d="m93.1 284.9c3.5 3 6.8 6.6 8.8 10.8 0.3 0.6 0.5 1 0.7 1.8q0.2 0.4 0.3 0.9 0 0.1 0 0.3c0-0.1 0-0.3 0-0.1q0 0.3 0 0.6 0 0.2 0 0.5c0 0.3 0 0.1 0 0.1q-0.1 0.5-0.3 1c0.1-0.3 0 0 0 0.1q-0.2 0.2-0.3 0.4c-0.1 0.2-0.4 0.5-0.6 0.7-0.9 0.8-2.2 1.1-3.5 1.1-1.5-0.1-3-0.5-4.5-1-2-0.8-4.1-1.8-6-3.1-1.8-1.1-3.4 1.7-1.7 2.8 1.9 1.3 4 2.3 6.1 3.1 3.3 1.3 7.3 2.2 10.5 0.4 3.3-1.8 4.2-5.5 3.1-8.9-1-3.3-3.2-6.3-5.5-8.9-1.5-1.7-3.1-3.4-4.8-4.9-1.6-1.4-3.9 0.9-2.3 2.3z"/>
						</g>
					</g>
					<g id="&lt;Group&gt;">
						<g id="&lt;Group&gt;">
							<path id="&lt;Path&gt;" class="s2" d="m105.8 271c2.2 2.9 4.1 6.3 5.1 9.7 0.3 1.3 0.5 2.2 0.4 3.5 0 0.9-0.2 1.8-0.9 2.7-0.1 0.2-0.5 0.5-1 0.8-0.4 0.2-0.9 0.3-1.5 0.4-1.1 0.2-2.6 0-3.8-0.3-3-0.7-6.1-2.2-8.1-4.6-0.6-0.7-1.7-0.6-2.3 0-0.7 0.6-0.6 1.6 0 2.3 2.1 2.5 5.4 4.2 8.5 5.2 3 0.9 6.8 1.3 9.5-0.6 5.3-3.8 2.3-11.6-0.2-16.2-0.9-1.6-1.8-3.1-2.9-4.6-0.5-0.7-1.4-1-2.2-0.5-0.7 0.4-1.1 1.5-0.6 2.2z"/>
						</g>
					</g>
				</g>
				<g id="&lt;Group&gt;">
					<g id="&lt;Group&gt;">
						<path id="&lt;Path&gt;" class="s2" d="m193.5 453.5c3.9-18.3 7.9-36.8 9.5-55.5 0.2-2.1-3.1-2.1-3.3 0-1.5 18.4-5.5 36.6-9.3 54.7-0.4 2 2.7 2.9 3.1 0.8z"/>
					</g>
				</g>
				<g id="&lt;Group&gt;">
					<g id="&lt;Group&gt;">
						<path id="&lt;Path&gt;" class="s2" d="m203.1 433.4q-1.1 2.5-2.1 5c-0.2 0.4-0.1 1 0.1 1.3 0.2 0.3 0.6 0.7 1 0.7 0.4 0.1 0.9 0.1 1.3-0.1 0.3-0.3 0.5-0.6 0.7-1q1.1-2.5 2.1-5.1c0.2-0.3 0.1-0.9-0.1-1.2-0.2-0.4-0.6-0.7-1-0.8-0.4-0.1-0.9 0-1.3 0.2-0.3 0.2-0.5 0.6-0.7 1z"/>
					</g>
				</g>
				<g id="&lt;Group&gt;">
					<path id="&lt;Path&gt;" class="s5" d="m459.8 434.3c0 0 6.9-16 19.5-16.4 12.5-0.3-14.6 17.9-10.3 42z"/>
					<g id="&lt;Group&gt;">
						<g id="&lt;Group&gt;">
							<path id="&lt;Path&gt;" class="s2" d="m461.2 435.1c1.3-3.1 3.3-6 5.5-8.6 2-2.2 4.2-4.2 6.9-5.5 1.3-0.6 2.8-1.1 4.3-1.3q0.9-0.1 1.8-0.1 0.3 0 0.6 0 0.1 0 0.2 0c0.3 0-0.3-0.1 0 0q0.2 0.1 0.5 0.1c0.2 0.1-0.4 0 0 0 0.3 0.1-0.1 0 0 0 0.3 0.2-0.1-0.1 0 0 0.1 0.2-0.1-0.4 0 0 0 0.1-0.1-0.5 0-0.1q0 0.2-0.1 0.4c0.1-0.4 0.1-0.1 0 0.1q-0.1 0.4-0.3 0.8c0.1-0.3-0.1 0.2-0.1 0.2q-0.2 0.3-0.3 0.6-0.7 1.3-1.5 2.5c-2.8 4.6-5.7 9-7.9 13.9-3.2 7-4.7 14.5-3.4 22.2q1.6-0.4 3.1-0.9-4-11.1-8-22.3-0.6-1.6-1.2-3.2c-0.7-2-3.8-1.1-3.1 0.8q4 11.2 8 22.4 0.6 1.6 1.2 3.2c0.7 2 3.5 1.2 3.1-0.9-1.1-6.8 0.4-13.7 3.2-19.9 2.3-5.1 5.5-9.7 8.3-14.4 1.5-2.4 4-7 0-8.4-2.2-0.9-5.1-0.3-7.3 0.4-3.1 1-5.9 2.8-8.3 5.1-3.3 3.1-6.2 7.1-8 11.3-0.9 1.9 1.9 3.5 2.8 1.6z"/>
						</g>
					</g>
					<path id="&lt;Path&gt;" class="s5" d="m434.4 396.4c0 0 26.5 11.4 31.2 23.5 4.8 12.2 12.2 41.6 1.1 57.4-11 15.9-28.8 21.2-31 3.5-2.2-17.6-4.1-33.6-13.8-44.3-9.8-10.6 4.2-12.1 4.2-12.1 0 0-9.4-9.9-6.2-14.3 3.1-4.5 9.9-1 9.9-1 0 0-8.1-11.8 4.6-12.7z"/>
					<g id="&lt;Group&gt;">
						<g id="&lt;Group&gt;">
							<path id="&lt;Path&gt;" class="s2" d="m428.6 410c7.6 5.8 16 12.3 17.8 22.3 0.4 2 3.5 1.2 3.2-0.9-2-10.8-11.1-17.9-19.4-24.2-0.7-0.5-1.8-0.1-2.2 0.6-0.5 0.8-0.1 1.7 0.6 2.2z"/>
						</g>
					</g>
					<g id="&lt;Group&gt;">
						<g id="&lt;Group&gt;">
							<path id="&lt;Path&gt;" class="s2" d="m425.1 425.5c6.9 4.5 12 11.5 14.3 19.4 0.6 2.1 3.7 1.2 3.1-0.8-2.5-8.8-8.2-16.5-15.8-21.5-1.8-1.1-3.4 1.7-1.6 2.9z"/>
						</g>
					</g>
					<g id="&lt;Group&gt;">
						<g id="&lt;Group&gt;">
							<path id="&lt;Path&gt;" class="s2" d="m433.6 397.8c3.3 1.5 6.5 3.1 9.7 4.9 5.9 3.2 11.8 6.8 16.5 11.7 1.9 2 3.6 4.1 4.6 6.8 1.1 2.8 2 5.7 2.8 8.6 2 7.5 3.4 15.1 3.6 22.8 0.3 7.6-0.5 15.6-4.4 22.2-2 3.5-4.8 6.7-7.9 9.4-2.6 2.2-5.6 4.3-8.9 5.3-2.4 0.8-5.1 1.1-7.4 0-2.5-1.2-3.8-3.8-4.5-6.5-0.5-2.2-0.7-4.5-1-6.7q-0.4-3.7-1-7.4c-0.7-4.7-1.5-9.3-2.7-13.8-1.1-4.2-2.6-8.3-4.6-12.1q-1.6-2.9-3.5-5.4c-1.3-1.7-2.8-3.1-3.9-4.8-0.6-1-1.1-2.2-0.9-3.3 0-0.5 0.4-1.1 1.1-1.7 0.3-0.3 1.5-0.9 2-1q1.1-0.4 2.3-0.7 0.3 0 0.7-0.1c0.4-0.1-0.5 0-0.1 0 1.4-0.1 2.2-1.7 1.2-2.8-2.6-2.6-5.3-6-6.3-9.6-0.5-2.2 0.5-3.9 3-4.1 1.2-0.2 2.4 0.1 3.5 0.5q0.3 0.1 0.6 0.2c0.1 0 0.7 0.2 0.4 0.1q0.2 0.1 0.5 0.2c1.3 0.7 3.2-0.8 2.2-2.2-1.1-1.7-1.8-3.2-2.2-5.1-0.2-1.1-0.2-2.4 0.5-3.3 0.9-1.3 3.2-1.7 4.9-1.8 2.1-0.2 2.1-3.5 0-3.3-2.5 0.2-5.3 0.8-7.1 2.7-1.3 1.4-1.8 3.4-1.6 5.3 0.2 2.5 1.2 5 2.7 7.1q1.1-1.1 2.2-2.2c-3.8-1.9-9.6-2.6-12.2 1.6-2.5 4 1.1 9.4 3.5 12.6 1 1.2 2 2.5 3.1 3.6q0.5-1.4 1.1-2.7c-3.4 0.3-7.7 1.7-9 5.3-1.1 3.1 0.9 6.4 2.9 8.7 1.4 1.7 2.9 3.4 4.1 5.3q1.8 2.8 3 5.7c4 9.2 5.2 19.4 6.4 29.1 0.6 4.1 0.8 8.4 3.2 11.9 1.7 2.6 4.4 4.2 7.5 4.6 7.2 0.9 14.3-4.3 19-9.2 2.9-3 5.6-6.5 7.4-10.3 1.7-3.8 2.6-7.8 3.1-11.9 1.1-8.4 0.1-17.1-1.6-25.4q-1.1-5.5-2.7-10.9c-0.9-2.9-1.8-5.9-3.3-8.6-3.5-6-9.9-10.4-15.7-14-4.6-2.9-9.4-5.5-14.4-7.7q-0.4-0.2-0.8-0.4c-1.9-0.8-3.6 2-1.6 2.8z"/>
						</g>
					</g>
				</g>
				<g id="&lt;Group&gt;">
					<g id="&lt;Group&gt;">
						<g id="&lt;Group&gt;">
							<path id="&lt;Path&gt;" class="s2" d="m232.4 177.5c-5-5.9-12.9-9.5-20.6-7.1-3.6 1.1-6.7 3.4-8.6 6.7-2.1 3.5-2.9 7.7-3.2 11.8-1.1 15.9 8.6 32 23.8 37.4 4.1 1.5 8.7 2.1 13 1.4 3.3-0.5 6.2-2.1 9-4 1.6-1.2 0-4.1-1.7-2.8-2 1.4-4 2.7-6.4 3.3-3.3 0.9-6.8 0.7-10.1-0.1-6.5-1.6-12.2-5.6-16.5-10.7-4.6-5.5-7.3-12.6-7.8-19.8-0.4-6.5 0.5-15.2 6.8-18.9 7-4.1 15.2-0.6 20 5.1 1.4 1.6 3.7-0.7 2.3-2.3z"/>
						</g>
					</g>
					<g id="&lt;Group&gt;">
						<g id="&lt;Group&gt;">
							<path id="&lt;Path&gt;" class="s2" d="m212.5 193.1c5.1 1.1 9.9 4.1 13.7 7.6 3.8 3.5 6.7 8 7.7 13.1 0.4 2.1 3.6 1.2 3.2-0.8-1.1-5.7-4.4-10.8-8.6-14.6-4.2-3.8-9.5-7.2-15.1-8.5-2.1-0.4-2.9 2.7-0.9 3.2z"/>
						</g>
					</g>
					<g id="&lt;Group&gt;">
						<g id="&lt;Group&gt;">
							<path id="&lt;Path&gt;" class="s2" d="m226.2 197.3c-4.1 1.1-6.7 4.8-7.5 8.8-0.1 0.8 0.3 1.8 1.2 2 0.8 0.2 1.8-0.3 2-1.2q0.1-0.6 0.3-1.2 0.1-0.3 0.2-0.6 0-0.2 0.1-0.3 0-0.1 0-0.2 0.1-0.1 0 0.1c0-0.2 0.2-0.4 0.3-0.5q0.1-0.3 0.3-0.6 0.1-0.3 0.3-0.5 0.1-0.2 0.2-0.3c0.2-0.3-0.1 0.1 0 0q0.4-0.5 0.8-0.9 0.2-0.2 0.5-0.4c0.2-0.2-0.2 0.1 0 0q0.1-0.1 0.2-0.2 0.5-0.3 1.1-0.6c0 0 0.2-0.1 0.2-0.1q-0.3 0.2-0.1 0.1 0 0 0.1-0.1 0.3-0.1 0.6-0.1c0.8-0.3 1.4-1.2 1.2-2.1-0.3-0.8-1.2-1.3-2-1.1z"/>
						</g>
					</g>
				</g>
				<g id="&lt;Group&gt;">
					<g id="&lt;Group&gt;">
						<path id="&lt;Path&gt;" class="s2" d="m134.9 323.1q6.4 23.6 12.4 47.3c4.2 16.7 8.3 33.4 12.2 50.1q3 13.1 5.9 26.2c0.4 2 3.5 1.2 3.1-0.9-3.4-15.9-7.2-31.8-11-47.6q-6.1-25.1-12.6-50-3.4-13-6.9-26c-0.6-2-3.7-1.2-3.1 0.9z"/>
					</g>
				</g>
				<g id="&lt;Group&gt;">
					<g id="&lt;Group&gt;">
						<path id="&lt;Path&gt;" class="s2" d="m109 330.8q1 23.9 2.3 47.8c1 18.2 1.9 36.5 3.8 54.7 0.6 6.5 1.3 13 3.3 19.2 3.3 10.7 9.4 20.4 17.5 28.1 6.8 6.4 15 11.5 24.1 13.9 3.6 1 7.6 1.6 11.4 1.1 3.5-0.4 6.6-2.1 9.1-4.5 5.4-5.3 8.1-13 10-20 1.5-5.5 2.4-11.1 3-16.7q0.1-0.5 0.1-0.9c0-0.6-0.3-1.2-0.8-1.4q-11.6-6.2-23.2-12.3-1.7-0.9-3.3-1.8c-1.9-0.9-3.5 1.9-1.7 2.9q11.6 6.1 23.2 12.2 1.7 0.9 3.3 1.8-0.4-0.7-0.8-1.4c-0.3 3.9-0.8 7.3-1.7 11.4-1.5 7-3.5 14.3-7.5 20.4-1.7 2.6-4 4.9-6.8 6.2-2.9 1.3-6.4 1.1-9.5 0.7-8.6-1.3-16.7-5.6-23.3-11-8.1-6.6-14.5-15.3-18.4-25.1-1.6-4-2.8-8.2-3.5-12.4-0.4-2.7-0.7-4.9-1-7.7-1.9-17.2-2.8-34.5-3.7-51.8q-1.4-24.9-2.5-49.8 0-1.8-0.1-3.6c-0.1-2.1-3.4-2.1-3.3 0z"/>
					</g>
				</g>
				<g id="&lt;Group&gt;">
					<g id="&lt;Group&gt;">
						<path id="&lt;Path&gt;" class="s2" d="m135.8 268.8c-2 1.7-3.9 3.6-5.7 5.5-3.3 3.5-6.6 7.2-9 11.4-1.1 1.8 1.7 3.4 2.8 1.6 2.3-4 5.4-7.5 8.6-10.8 1.8-1.9 3.7-3.7 5.6-5.4 1.6-1.4-0.7-3.7-2.3-2.3z"/>
					</g>
				</g>
				<g id="&lt;Group&gt;">
					<g id="&lt;Group&gt;">
						<path id="&lt;Path&gt;" class="s2" d="m270.2 255.5c0.7 8.3-0.8 17-6.7 23.2-3.7 3.8-8.4 6.2-13.4 7.5q-1.2 0.3-2.4 0.5c-0.2 0-1.1 0.1-0.3 0q-0.1 0-0.2 0c-1.2 0.2-2.1 1.3-1.4 2.5 3 5.3 6.4 10.5 9.9 15.5 6.4 9.2 13.5 18.4 22.3 25.3 3.7 2.9 7.8 5.6 12.4 6.5 4.5 0.9 8.8-0.3 12.7-2.5 4.6-2.6 8.5-6.3 12.1-10.1 3.9-4.3 7.4-8.9 10.7-13.7 4.2-6.2 8.3-12.7 11.7-19.5q0.1-0.2 0.2-0.3c0.3-0.8 0.3-1.9-0.6-2.3-2.4-1-4.8-2.6-6.8-4.2-4.9-3.8-8.9-8.7-11.3-14.4-1.8-4.3-2.7-8.8-2.8-13.4 0-2.1-3.3-2.1-3.2 0 0.1 8.2 2.7 16.1 7.7 22.7 3.2 4.3 7.4 7.9 12 10.7 0.9 0.5 1.8 1 2.8 1.4q-0.3-1.1-0.6-2.2c-2.8 5.5-6 10.7-9.3 15.8-2.9 4.6-6.1 9.1-9.6 13.3-3.3 4.1-7 8-11.2 11.1-3.3 2.5-7.3 4.7-11.5 4.7-3.9 0-7.9-2.2-11.2-4.5-4.2-3-8-6.7-11.5-10.6-3.7-4.1-7.1-8.4-10.4-12.9q-4-5.6-7.8-11.5c-1.2-2.1-2.4-4.3-3.8-6.3q0-0.1-0.1-0.2-0.7 1.2-1.4 2.4c10.5-1 20.3-8 24.2-17.8 2.1-5.3 2.6-11.1 2.1-16.7-0.2-2.1-3.4-2.1-3.3 0z"/>
					</g>
				</g>
			</g>
		</g>
		<g id="&lt;Group&gt;">
			<path id="&lt;Path&gt;" class="s2" d="m829.7 415.3h-93.5c-13.8 0-25-11.2-25-25 0-13.8 11.2-25 25-25h93.5c13.8 0 25 11.2 25 25 0 13.8-11.2 25-25 25z"/>
			<g id="&lt;Group&gt;">
				<path id="&lt;Path&gt;" class="s3" d="m820.7 408.4h-93.5c-13.8 0-24.9-11.2-24.9-25 0-13.8 11.1-25 24.9-25h93.5c13.8 0 25 11.2 25 25 0 13.8-11.2 25-25 25z"/>
				<g id="&lt;Group&gt;">
					<g id="&lt;Group&gt;">
						<path id="&lt;Path&gt;" class="s2" d="m822.7 408.1q-8.5 0-17.1 0-18.1 0-36.2 0-16.1 0-32.2 0-3.7 0-7.5 0c-6 0-11.7-2-16.2-6-6.5-5.9-9.3-15-7.2-23.4 2.1-8.2 8.5-14.9 16.7-17.1 3-0.8 6-0.8 9-0.8q5.5 0 10.9 0 17.5 0 35 0 16.9 0 33.8 0c7.3 0 15.2-0.9 21.9 2.6 7.5 3.9 12.5 11.8 12.8 20.3 0.2 8.7-4.4 16.9-11.8 21.2-3.6 2.1-7.7 3.2-11.9 3.2-1.7 0-1.7 2.7 0 2.7 8.9-0.1 17.3-4.6 22.1-12.1 5-7.5 5.6-17.3 1.8-25.4-3.7-8-11.4-13.7-20.1-14.9-2.5-0.4-5-0.3-7.6-0.3q-14.7 0-29.5 0-19 0-38.1 0-10.9 0-21.7 0c-6.9 0-13.5 2.5-18.5 7.3-6.5 6.1-9.4 15.4-7.7 24.2 1.7 8.6 7.8 15.9 15.9 19.2 3.9 1.6 7.9 2 12 2q13.3 0 26.7 0 19.3 0 38.5 0 12.5 0 25 0 0.6 0 1.2 0c1.8 0 1.8-2.7 0-2.7z"/>
					</g>
				</g>
			</g>
		</g>
	</g>
	<g id="TEXT">
		<text id="Contact Us
" style="transform: matrix(1,0,0,1,773.242,389.319)" >
			<tspan x="-46.9" y="0" class="t8" dx="0 0 0 0 0 0 0 0 0 0 0" >Contact Us
</tspan>
		</text>
	</g>
</svg>